<svg xmlns="http://www.w3.org/2000/svg" width="65" height="65" fill="none"><path fill="#fff" stroke="#F0F0F0" d="M32.5 64.5c-17.673 0-32-14.327-32-32 0-17.673 14.327-32 32-32 17.673 0 32 14.327 32 32 0 17.673-14.327 32-32 32Z"/><path fill="#fff" d="M27.675 16.932a17.318 17.318 0 0 0-8.63 6.457 16.76 16.76 0 0 0-3.026 10.219 16.803 16.803 0 0 0 3.764 9.98 17.386 17.386 0 0 0 9.08 5.836c2.906.735 5.952.767 8.874.094A15.781 15.781 0 0 0 44.84 45.9a15.388 15.388 0 0 0 4.388-7.058c.849-2.936 1-6.023.442-9.025H33.346v6.636H42.8a7.894 7.894 0 0 1-1.19 2.97 8.068 8.068 0 0 1-2.282 2.276 10.047 10.047 0 0 1-3.82 1.478c-1.37.25-2.773.25-4.142 0a10.308 10.308 0 0 1-3.853-1.647 10.584 10.584 0 0 1-3.977-5.22 10.098 10.098 0 0 1 0-6.619 10.516 10.516 0 0 1 2.518-4.007 10.241 10.241 0 0 1 4.759-2.728 10.395 10.395 0 0 1 5.512.1 9.45 9.45 0 0 1 3.74 2.15c1.066-1.04 2.13-2.082 3.193-3.126.548-.562 1.146-1.097 1.686-1.672a16.844 16.844 0 0 0-5.584-3.375 17.891 17.891 0 0 0-11.685-.102Z"/><path fill="#E33629" d="M27.675 16.932a17.891 17.891 0 0 1 11.686.1c2.07.759 3.967 1.911 5.581 3.391-.548.575-1.127 1.113-1.687 1.672a1730.012 1730.012 0 0 1-3.19 3.112 9.452 9.452 0 0 0-3.74-2.15c-1.793-.53-3.7-.567-5.512-.105a10.241 10.241 0 0 0-4.761 2.722 10.516 10.516 0 0 0-2.518 4.008l-5.685-4.314c2.035-3.954 5.558-6.98 9.826-8.436Z"/><path fill="#F8BD00" d="M16.34 29.641a16.702 16.702 0 0 1 1.509-4.273l5.685 4.324a10.098 10.098 0 0 0 0 6.62c-1.894 1.433-3.79 2.874-5.685 4.321a16.715 16.715 0 0 1-1.509-10.992Z"/><path fill="#587DBD" d="M33.346 29.815H49.67a19.58 19.58 0 0 1-.442 9.025c-.781 2.7-2.298 5.14-4.388 7.058-1.835-1.403-3.678-2.795-5.513-4.198a8.067 8.067 0 0 0 2.283-2.279 7.894 7.894 0 0 0 1.19-2.973h-9.454c-.003-2.209 0-4.42 0-6.633Z"/><path fill="#319F43" d="M17.846 40.633c1.896-1.433 3.79-2.874 5.685-4.322a10.583 10.583 0 0 0 3.982 5.22 10.31 10.31 0 0 0 3.862 1.634c1.368.25 2.772.25 4.14 0a10.047 10.047 0 0 0 3.821-1.478c1.835 1.403 3.678 2.795 5.513 4.198a15.78 15.78 0 0 1-7.103 3.62c-2.923.673-5.969.64-8.875-.095a17.414 17.414 0 0 1-6.308-3.114 17.195 17.195 0 0 1-4.717-5.663Z"/></svg>