<svg xmlns="http://www.w3.org/2000/svg" width="54" height="54" fill="none"><path fill="#000" d="M27 0c-3.546 0-7.057.716-10.332 2.106a26.967 26.967 0 0 0-8.76 5.998C2.845 13.294 0 20.332 0 27.67 0 39.9 7.749 50.277 18.468 53.957c1.35.221 1.782-.636 1.782-1.383v-4.677c-7.479 1.66-9.072-3.707-9.072-3.707-1.242-3.21-2.997-4.068-2.997-4.068-2.457-1.716.189-1.66.189-1.66 2.7.193 4.131 2.85 4.131 2.85 2.349 4.206 6.318 2.96 7.857 2.296.243-1.798.945-3.016 1.701-3.707-5.994-.692-12.285-3.072-12.285-13.614 0-3.072 1.026-5.534 2.781-7.499-.27-.692-1.215-3.57.27-7.305 0 0 2.268-.747 7.425 2.823 2.133-.61 4.455-.914 6.75-.914s4.617.305 6.75.914c5.157-3.57 7.425-2.823 7.425-2.823 1.485 3.736.54 6.613.27 7.305 1.755 1.965 2.781 4.427 2.781 7.499 0 10.57-6.318 12.894-12.339 13.586.972.858 1.863 2.546 1.863 5.119v7.582c0 .747.432 1.632 1.809 1.383C46.278 50.25 54 39.901 54 27.67c0-3.633-.698-7.232-2.055-10.589a27.726 27.726 0 0 0-5.853-8.977 26.967 26.967 0 0 0-8.76-5.998A26.433 26.433 0 0 0 27 0Z"/></svg>