<svg xmlns="http://www.w3.org/2000/svg" width="60" height="60" fill="none"><rect width="60" height="60" fill="#FEE500" rx="30"/><path fill="#000" d="M29.998 15C39.941 15 48 21.455 48 29.42c0 7.963-8.059 14.418-18 14.418a23.36 23.36 0 0 1-2.96-.194l-7.557 5.08c-.859.466-1.162.415-.81-.728l1.53-6.48C15.266 38.944 12 34.486 12 29.42 12 21.457 20.057 15 30 15m10.128 14.2 2.52-2.509a.844.844 0 0 0-.001-1.155.796.796 0 0 0-1.123-.04l-3.306 3.288v-2.717a.843.843 0 0 0-.237-.588.798.798 0 0 0-.572-.243.798.798 0 0 0-.572.243.843.843 0 0 0-.237.588v4.505a.905.905 0 0 0 0 .391v2.535c0 .221.085.433.237.589a.798.798 0 0 0 .572.243c.215 0 .42-.088.572-.243a.844.844 0 0 0 .237-.589v-2.4l.732-.728 2.448 3.581a.82.82 0 0 0 .523.342.787.787 0 0 0 .605-.14.823.823 0 0 0 .332-.537.854.854 0 0 0-.135-.621L40.128 29.2Zm-5.07 3.39h-2.504v-6.496a.842.842 0 0 0-.25-.563.797.797 0 0 0-1.117 0 .842.842 0 0 0-.25.563v7.327c0 .458.36.831.808.831h3.312c.215 0 .42-.087.572-.243a.844.844 0 0 0 0-1.176.799.799 0 0 0-.572-.244Zm-10.041-1.923 1.193-3.009 1.093 3.008-2.286.001Zm4.325.858.003-.028a.84.84 0 0 0-.218-.564L27.334 26a1.216 1.216 0 0 0-.41-.59 1.164 1.164 0 0 0-.665-.245c-.242 0-.478.075-.678.216-.2.14-.354.34-.441.572l-2.85 7.179a.853.853 0 0 0 .004.637.82.82 0 0 0 .44.447.789.789 0 0 0 .62-.003.82.82 0 0 0 .435-.452l.57-1.432h3.548l.51 1.41a.837.837 0 0 0 .42.483.793.793 0 0 0 .903-.147.833.833 0 0 0 .253-.594.851.851 0 0 0-.06-.324l-.591-1.632Zm-5.697-5.422a.847.847 0 0 0-.235-.589.805.805 0 0 0-.572-.243h-5.563a.799.799 0 0 0-.572.244.844.844 0 0 0 0 1.176.799.799 0 0 0 .572.243h1.988v6.582c0 .22.086.432.237.588a.799.799 0 0 0 .573.244c.214 0 .42-.088.572-.244a.843.843 0 0 0 .237-.588v-6.582h1.954a.787.787 0 0 0 .573-.242.83.83 0 0 0 .236-.59Z"/></svg>