<svg xmlns="http://www.w3.org/2000/svg" width="65" height="65" fill="none"><path fill="#000" stroke="#F0F0F0" d="M32.5 64.5c-17.673 0-32-14.327-32-32 0-17.673 14.327-32 32-32 17.673 0 32 14.327 32 32 0 17.673-14.327 32-32 32Z"/><path fill="#fff" d="M47.833 20.614a7.807 7.807 0 0 0-.507-.605c.18-.48.318-.977.41-1.483a10.34 10.34 0 0 0-.683-5.462s-2.185-.683-7.199 2.692a24.388 24.388 0 0 0-6.536-.878 24.585 24.585 0 0 0-6.555.878c-5.014-3.414-7.199-2.692-7.199-2.692a10.261 10.261 0 0 0-.683 5.404 8.19 8.19 0 0 0 .43 1.541c-.176.195-.352.41-.508.605a10.028 10.028 0 0 0-2.185 6.438c-.003.554.023 1.107.078 1.658.624 8.643 6.38 10.652 11.862 11.277a4.995 4.995 0 0 0-1.502 2.712 7.806 7.806 0 0 0-.254 2.126v2.556c-2.183.195-4.423-.123-5.117-2.07a11.122 11.122 0 0 0-3.578-4.708 1.954 1.954 0 0 1-.332-.218 1.952 1.952 0 0 0-1.814-1.259h-.01A1.95 1.95 0 0 0 14 41.068c-.006 1.584 1.58 2.608 2.23 2.955a8.78 8.78 0 0 1 1.8 2.652c.71 1.995 2.789 5.03 8.714 4.635l.003.191.008.523a1.95 1.95 0 0 0 1.951 1.951h9.197a1.95 1.95 0 0 0 1.951-1.95s.016-6.166.016-7.2a7.806 7.806 0 0 0-.254-2.126l-.004-.012.008.012c-.018-.069-.043-.123-.063-.19a4.936 4.936 0 0 0-1.443-2.522l.023.04-.039-.038c5.482-.624 11.199-2.673 11.823-11.277.055-.55.081-1.104.078-1.658.034-2.33-.73-4.604-2.166-6.44Z"/></svg>