<svg width="380" height="367" viewBox="0 0 380 367" fill="none" xmlns="http://www.w3.org/2000/svg">
<path d="M190 16.7404C223.539 -16.2552 280.362 2.22234 288.064 48.5921C334.588 41.5971 369.712 89.9026 348.673 131.961C390.442 153.65 390.442 213.35 348.673 235.039C369.712 277.097 334.588 325.403 288.064 318.408C280.318 364.778 223.539 383.255 190 350.26C156.461 383.255 99.638 364.778 91.9355 318.408C45.4121 325.403 10.2884 277.097 31.3274 235.039C-10.4425 213.35 -10.4425 153.65 31.3274 131.961C10.2884 89.9026 45.4121 41.5971 91.9355 48.5921C99.682 2.22234 156.461 -16.2552 190 16.7404Z" fill="#FF6C3D"/>
</svg>
