<svg width="225" height="225" viewBox="0 0 225 225" fill="none" xmlns="http://www.w3.org/2000/svg">
<path d="M157.98 191.288L151.834 218.025L129.806 201.709L115.327 225L99.7782 202.403L78.5266 219.723L71.1533 193.296L45.4342 202.771L47.0291 175.374L19.64 175.967L30.0278 150.577L3.92466 142.231L21.9865 121.591L0 105.216L23.7734 91.5672L8.29189 68.9201L35.1967 63.7433L27.8985 37.2993L55.0288 41.1463L56.6905 13.7572L81.1069 26.2266L91.5615 0.861396L110.609 20.5899L128.721 0L140.336 24.855L164.151 11.2734L167.082 38.5537L194.004 33.4523L187.924 60.2141L215.046 64.1364L200.625 87.4693L225 100.006L203.798 117.384L222.787 137.163L197.093 146.713L208.65 171.593L181.253 172.262L184.108 199.56L157.98 191.288Z" fill="#BBD322"/>
</svg>
