<svg width="203" height="203" viewBox="0 0 203 203" fill="none" xmlns="http://www.w3.org/2000/svg">
<path d="M202.966 101.517H203C203 101.517 203 101.494 202.966 101.483C177.171 87.7438 164.741 57.7186 173.259 29.7633V29.7292C173.259 29.7292 173.259 29.7292 173.236 29.7292C145.281 38.2477 115.256 25.8168 101.517 0.0224008V-0.0117188C101.517 -0.0117188 101.494 -0.0117188 101.483 0.0224008C87.7441 25.8168 57.7189 38.2477 29.7636 29.7292H29.7295C29.7295 29.7292 29.7295 29.7292 29.7295 29.7519C38.2594 57.7186 25.8285 87.7438 0.0341196 101.483H0C0 101.483 0 101.505 0.0341196 101.517C25.8285 115.256 38.2594 145.281 29.7409 173.236V173.27C29.7409 173.27 29.7409 173.27 29.7636 173.27C57.7189 164.752 87.7441 177.183 101.483 202.977V203.011C101.483 203.011 101.506 203.011 101.517 202.977C115.256 177.183 145.281 164.752 173.236 173.27H173.27C173.27 173.27 173.27 173.27 173.27 173.247C164.752 145.292 177.183 115.267 202.977 101.528L202.966 101.517Z" fill="#49BD81"/>
</svg>
