<svg width="96" height="96" viewBox="0 0 96 96" fill="none" xmlns="http://www.w3.org/2000/svg">
<g clip-path="url(#clip0_1257_538)">
<path d="M69.3745 47.8913C84.7344 39.0261 95.3697 20.9676 95.7849 0H0C0.415131 20.9676 11.0505 39.0261 26.4103 47.8913C11.0505 56.7566 0.415131 74.8172 0 95.7849H95.7849C95.3697 74.8172 84.7344 56.7588 69.3745 47.8935V47.8913Z" fill="#FF4CBF"/>
<path d="M31.1446 28.1426C32.8673 28.1426 34.2638 23.7772 34.2638 18.3921C34.2638 13.007 32.8673 8.6416 31.1446 8.6416C29.4219 8.6416 28.0254 13.007 28.0254 18.3921C28.0254 23.7772 29.4219 28.1426 31.1446 28.1426Z" fill="white"/>
<path d="M64.6407 28.1426C66.3634 28.1426 67.7599 23.7772 67.7599 18.3921C67.7599 13.0071 66.3634 8.6416 64.6407 8.6416C62.918 8.6416 61.5215 13.0071 61.5215 18.3921C61.5215 23.7772 62.918 28.1426 64.6407 28.1426Z" fill="white"/>
</g>
<defs>
<clipPath id="clip0_1257_538">
<rect width="95.7849" height="95.7849" fill="white"/>
</clipPath>
</defs>
</svg>
