<svg width="96" height="96" viewBox="0 0 96 96" fill="none" xmlns="http://www.w3.org/2000/svg">
<path d="M84.4338 14.2893L59.2369 0C54.1949 8.57098 50.354 16.9864 47.8858 24.3385C45.4308 16.9864 41.5767 8.57098 36.5479 0L11.3511 14.2893C16.3931 22.8603 21.8839 30.342 27.1371 36.1122C19.4289 34.5303 10.084 33.5967 0 33.5967V62.1752C10.0708 62.1752 19.4157 61.2416 27.1371 59.6597C21.8839 65.4299 16.3931 72.9116 11.3511 81.4826L36.5479 95.7719C41.5899 87.2009 45.444 78.7855 47.899 71.4334C50.354 78.7855 54.2081 87.2009 59.2501 95.7719L84.447 81.4826C79.4049 72.9116 73.9142 65.4299 68.661 59.6597C76.3692 61.2416 85.7141 62.1752 95.7981 62.1752V33.5967C85.7273 33.5967 76.3824 34.5303 68.661 36.1122C73.9142 30.342 79.4049 22.8603 84.447 14.2893H84.4338Z" fill="#28C169"/>
<path d="M37.472 49.3772C33.6179 49.3772 30.4766 46.2912 30.4766 42.5049H31.7965C31.7965 45.578 34.3439 48.0806 37.472 48.0806C40.6002 48.0806 43.1476 45.578 43.1476 42.5049H44.4675C44.4675 46.2912 41.3261 49.3772 37.472 49.3772Z" fill="#272525"/>
<path d="M37.4723 49.6361C33.473 49.6361 30.2129 46.4334 30.2129 42.5044C30.2129 42.3618 30.3317 42.2451 30.4769 42.2451H31.7968C31.942 42.2451 32.0607 42.3618 32.0607 42.5044C32.0607 45.4349 34.4894 47.8208 37.4723 47.8208C40.4553 47.8208 42.8839 45.4349 42.8839 42.5044C42.8839 42.3618 43.0027 42.2451 43.1479 42.2451H44.4678C44.613 42.2451 44.7317 42.3618 44.7317 42.5044C44.7317 46.4334 41.4716 49.6361 37.4723 49.6361ZM30.7409 42.7638C30.8728 46.2907 33.8426 49.1175 37.4723 49.1175C41.102 49.1175 44.0586 46.2907 44.2038 42.7638H43.4119C43.2799 45.8628 40.6665 48.3395 37.4723 48.3395C34.2782 48.3395 31.678 45.8628 31.5328 42.7638H30.7409Z" fill="#272525"/>
<path d="M34.9713 48.1855L34.0684 50.9785L35.3263 51.371L36.2293 48.578L34.9713 48.1855Z" fill="#272525"/>
<path d="M35.3209 51.6326C35.3209 51.6326 35.2681 51.6326 35.2417 51.6326L33.9878 51.2436C33.9218 51.2177 33.869 51.1788 33.8294 51.114C33.7899 51.0491 33.7899 50.9843 33.8163 50.9195L34.7138 48.1316C34.7534 48.002 34.9118 47.9112 35.0438 47.9631L36.2977 48.3521C36.3637 48.378 36.4164 48.4169 36.456 48.4817C36.4956 48.5466 36.4956 48.6114 36.4692 48.6762L35.5717 51.4641C35.5321 51.5678 35.4265 51.6456 35.3209 51.6456V51.6326ZM34.397 50.8028L35.1493 51.0362L35.8885 48.7411L35.1361 48.5077L34.397 50.8028Z" fill="#272525"/>
<path d="M39.7353 48.2572L38.4609 48.5947L39.2375 51.4241L40.5119 51.0866L39.7353 48.2572Z" fill="#272525"/>
<path d="M39.2281 51.6844C39.1093 51.6844 39.0037 51.6066 38.9773 51.4899L38.1985 48.6632C38.1853 48.5984 38.1985 48.5206 38.2249 48.4687C38.2513 48.4168 38.3173 48.365 38.3833 48.352L39.6636 48.0149C39.8088 47.976 39.954 48.0538 39.9804 48.1964L40.7591 51.0231C40.7723 51.088 40.7591 51.1658 40.7327 51.2176C40.7063 51.2695 40.6403 51.3214 40.5743 51.3343L39.2941 51.6715C39.2941 51.6715 39.2545 51.6715 39.2281 51.6715V51.6844ZM38.7793 48.7799L39.4128 51.1009L40.1784 50.8935L39.5448 48.5724L38.7793 48.7799Z" fill="#272525"/>
<path d="M42.3553 46.4934L41.4219 47.4102L43.5308 49.4827L44.4643 48.566L42.3553 46.4934Z" fill="#272525"/>
<path d="M43.5311 49.7269C43.4651 49.7269 43.3991 49.7009 43.3463 49.6491L41.2345 47.5744C41.1289 47.4707 41.1289 47.3021 41.2345 47.2113L42.1716 46.2907C42.1716 46.2907 42.2904 46.2129 42.3564 46.2129C42.4224 46.2129 42.4884 46.2388 42.5412 46.2907L44.653 48.3654C44.7586 48.4691 44.7586 48.6377 44.653 48.7284L43.7159 49.6491C43.7159 49.6491 43.5971 49.7269 43.5311 49.7269ZM41.802 47.4058L43.5311 49.1045L44.0854 48.5599L42.3564 46.8612L41.802 47.4058Z" fill="#272525"/>
<path d="M32.5907 46.4581L30.4814 48.5303L31.4148 49.4472L33.524 47.375L32.5907 46.4581Z" fill="#272525"/>
<path d="M31.414 49.7142C31.348 49.7142 31.282 49.6882 31.2292 49.6364L30.2921 48.7157C30.2921 48.7157 30.2129 48.599 30.2129 48.5342C30.2129 48.4694 30.2393 48.4045 30.2921 48.3527L32.4039 46.278C32.5095 46.1743 32.6811 46.1743 32.7735 46.278L33.7106 47.1986C33.7106 47.1986 33.7898 47.3153 33.7898 47.3802C33.7898 47.445 33.7634 47.5098 33.7106 47.5617L31.5988 49.6364C31.5988 49.6364 31.48 49.7142 31.414 49.7142ZM30.8596 48.5342L31.414 49.0788L33.1431 47.3802L32.5887 46.8356L30.8596 48.5342Z" fill="#272525"/>
<path d="M58.3128 49.3772C54.4587 49.3772 51.3174 46.2912 51.3174 42.5049H52.6373C52.6373 45.578 55.1847 48.0806 58.3128 48.0806C61.441 48.0806 63.9884 45.578 63.9884 42.5049H65.3083C65.3083 46.2912 62.1669 49.3772 58.3128 49.3772Z" fill="#272525"/>
<path d="M58.3131 49.6361C54.3139 49.6361 51.0537 46.4334 51.0537 42.5044C51.0537 42.3618 51.1725 42.2451 51.3177 42.2451H52.6376C52.7828 42.2451 52.9016 42.3618 52.9016 42.5044C52.9016 45.4349 55.3302 47.8208 58.3131 47.8208C61.2961 47.8208 63.7247 45.4349 63.7247 42.5044C63.7247 42.3618 63.8435 42.2451 63.9887 42.2451H65.3086C65.4538 42.2451 65.5726 42.3618 65.5726 42.5044C65.5726 46.4334 62.3124 49.6361 58.3131 49.6361ZM51.5949 42.7638C51.7269 46.2907 54.6966 49.1175 58.3263 49.1175C61.9561 49.1175 64.9126 46.2907 65.0578 42.7638H64.2659C64.1339 45.8628 61.5205 48.3395 58.3263 48.3395C55.1322 48.3395 52.532 45.8628 52.3868 42.7638H51.5949Z" fill="#272525"/>
<path d="M55.8131 48.1875L54.9102 50.9805L56.1681 51.373L57.0711 48.58L55.8131 48.1875Z" fill="#272525"/>
<path d="M56.1754 51.6327C56.1754 51.6327 56.1226 51.6327 56.0962 51.6327L54.8423 51.2437C54.7763 51.2177 54.7235 51.1788 54.6839 51.114C54.6443 51.0491 54.6443 50.9843 54.6707 50.9195L55.5683 48.1316C55.6079 48.002 55.7663 47.9112 55.8982 47.9631L57.1521 48.3521C57.2181 48.378 57.2709 48.4169 57.3105 48.4817C57.3501 48.5466 57.3501 48.6114 57.3237 48.6762L56.4262 51.4641C56.3866 51.5678 56.281 51.6456 56.1754 51.6456V51.6327ZM55.2515 50.8028L56.0038 51.0362L56.743 48.7411L55.9906 48.5077L55.2515 50.8028Z" fill="#272525"/>
<path d="M60.5703 48.2572L59.2959 48.5947L60.0725 51.4241L61.3469 51.0866L60.5703 48.2572Z" fill="#272525"/>
<path d="M60.0689 51.6844C59.9501 51.6844 59.8445 51.6066 59.8181 51.4899L59.0394 48.6632C59.0262 48.5984 59.0394 48.5206 59.0658 48.4687C59.0922 48.4168 59.1581 48.365 59.2241 48.352L60.5044 48.0149C60.6364 47.976 60.7948 48.0538 60.8212 48.1964L61.6 51.0231C61.6132 51.088 61.6 51.1658 61.5736 51.2176C61.5472 51.2695 61.4812 51.3214 61.4152 51.3343L60.1349 51.6715C60.1349 51.6715 60.0953 51.6715 60.0689 51.6715V51.6844ZM59.6201 48.7799L60.2537 51.1009L61.0192 50.8935L60.3857 48.5724L59.6201 48.7799Z" fill="#272525"/>
<path d="M63.202 46.4807L62.2686 47.3975L64.3775 49.47L65.3109 48.5533L63.202 46.4807Z" fill="#272525"/>
<path d="M64.3719 49.7269C64.3059 49.7269 64.2399 49.7009 64.1871 49.6491L62.0753 47.5744C61.9697 47.4707 61.9697 47.3021 62.0753 47.2113L63.0124 46.2907C63.0124 46.2907 63.1312 46.2129 63.1972 46.2129C63.2632 46.2129 63.3292 46.2388 63.382 46.2907L65.4938 48.3654C65.5994 48.4691 65.5994 48.6377 65.4938 48.7284L64.5567 49.6491C64.5567 49.6491 64.4379 49.7269 64.3719 49.7269ZM62.6428 47.4058L64.3719 49.1045L64.9263 48.5599L63.1972 46.8612L62.6428 47.4058Z" fill="#272525"/>
<path d="M53.4394 46.464L51.3301 48.5361L52.2634 49.453L54.3727 47.3809L53.4394 46.464Z" fill="#272525"/>
<path d="M52.2685 49.7142C52.2025 49.7142 52.1365 49.6882 52.0837 49.6364L51.1466 48.7157C51.1466 48.7157 51.0674 48.599 51.0674 48.5342C51.0674 48.4694 51.0938 48.4045 51.1466 48.3527L53.2584 46.278C53.364 46.1743 53.5356 46.1743 53.628 46.278L54.5651 47.1986C54.5651 47.1986 54.6443 47.3153 54.6443 47.3802C54.6443 47.445 54.6179 47.5098 54.5651 47.5617L52.4533 49.6364C52.4533 49.6364 52.3345 49.7142 52.2685 49.7142ZM51.7009 48.5342L52.2553 49.0788L53.9844 47.3802L53.43 46.8356L51.7009 48.5342Z" fill="#272525"/>
</svg>
