<svg width="158" height="151" viewBox="0 0 158 151" fill="none" xmlns="http://www.w3.org/2000/svg">
<mask id="mask0_1277_1019" style="mask-type:alpha" maskUnits="userSpaceOnUse" x="0" y="0" width="146" height="139">
<rect x="0.810547" y="0.5" width="144.69" height="138" rx="19.5" fill="white" stroke="white"/>
</mask>
<g mask="url(#mask0_1277_1019)">
<path d="M182.422 93.2855C182.422 88.9012 177.058 84.8237 167.847 81.4209C155.111 76.7161 149.025 62.0218 154.705 49.69C158.812 40.7746 159.721 34.0998 156.621 31.0017C153.52 27.9012 146.848 28.8106 137.933 32.9174C125.601 38.597 110.906 32.5113 106.202 19.7756C102.801 10.5668 98.7236 5.20312 94.3392 5.20312C89.9549 5.20312 85.8774 10.5668 82.4746 19.7778C77.7698 32.5135 63.0755 38.5993 50.7437 32.9197C41.8283 28.8129 35.1536 27.9035 32.0554 31.0039C28.955 34.1044 29.8643 40.7768 33.9711 49.6922C39.6508 62.024 33.565 76.7183 20.8293 81.4231C11.6205 84.8214 6.25684 88.9012 6.25684 93.2855C6.25684 97.6699 11.6205 101.747 20.8316 105.15C33.5672 109.855 39.653 124.549 33.9734 136.881C29.8666 145.797 28.9572 152.471 32.0576 155.569C35.1581 158.67 41.8305 157.76 50.746 153.654C63.0777 147.974 77.772 154.06 82.4768 166.795C85.8796 176.007 89.9571 181.37 94.3415 181.37C98.7259 181.37 102.803 176.007 106.206 166.795C110.911 154.06 125.605 147.974 137.937 153.654C146.852 157.76 153.527 158.67 156.625 155.569C159.726 152.469 158.816 145.797 154.71 136.881C149.03 124.549 155.116 109.855 167.851 105.15C177.062 101.75 182.426 97.6699 182.426 93.2855H182.422Z" fill="#FFCD58"/>
<path d="M80.6188 97.879C74.2546 96.8985 70.659 85.9541 72.5878 73.4339C74.5166 60.9136 81.2394 51.5588 87.6036 52.5392C93.9678 53.5197 97.5634 64.4641 95.6346 76.9843C93.7058 89.5045 86.983 98.8594 80.6188 97.879Z" fill="white"/>
<mask id="mask1_1277_1019" style="mask-type:luminance" maskUnits="userSpaceOnUse" x="72" y="52" width="25" height="46">
<path d="M80.6188 97.879C74.2546 96.8985 70.659 85.9541 72.5878 73.4339C74.5166 60.9136 81.2394 51.5588 87.6036 52.5392C93.9678 53.5197 97.5634 64.4641 95.6346 76.9843C93.7058 89.5045 86.983 98.8594 80.6188 97.879Z" fill="white"/>
</mask>
<g mask="url(#mask1_1277_1019)">
<path d="M78.0537 94.0311C72.2906 93.1432 68.9497 83.7836 70.5916 73.1257C72.2334 62.4678 78.2364 54.5476 83.9995 55.4354C89.7626 56.3232 93.1036 65.6829 91.4617 76.3408C89.8198 86.9987 83.8168 94.9189 78.0537 94.0311Z" fill="#4C3500"/>
</g>
<path d="M43.0885 92.0977C36.7243 91.1173 33.1287 80.1728 35.0575 67.6526C36.9863 55.1324 43.7091 45.7775 50.0733 46.758C56.4375 47.7384 60.0331 58.6829 58.1043 71.2031C56.1755 83.7233 49.4527 93.0781 43.0885 92.0977Z" fill="white"/>
<mask id="mask2_1277_1019" style="mask-type:luminance" maskUnits="userSpaceOnUse" x="34" y="46" width="25" height="47">
<path d="M43.0885 92.0977C36.7243 91.1173 33.1287 80.1728 35.0575 67.6526C36.9863 55.1324 43.7091 45.7775 50.0733 46.758C56.4375 47.7384 60.0331 58.6829 58.1043 71.2031C56.1755 83.7233 49.4527 93.0781 43.0885 92.0977Z" fill="white"/>
</mask>
<g mask="url(#mask2_1277_1019)">
<path d="M40.5234 88.2518C34.7603 87.3639 31.4194 78.0043 33.0613 67.3464C34.7032 56.6885 40.7061 48.7683 46.4692 49.6561C52.2324 50.5439 55.5733 59.9036 53.9314 70.5615C52.2895 81.2194 46.2865 89.1396 40.5234 88.2518Z" fill="#4C3500"/>
</g>
</g>
</svg>
