<svg xmlns="http://www.w3.org/2000/svg" width="574" height="587" fill="none"><path fill="#BDBCFF" d="M499.165 383.307c1.504-.345 2.982-.664 4.486-1.008 92.827-21.25 92.827-156.862 0-178.111-1.478-.345-2.982-.69-4.486-1.008.83-1.327 1.66-2.653 2.464-3.953 50.977-82.184-42.758-178.084-123.087-125.93-1.296.85-2.593 1.672-3.863 2.52-.337-1.538-.649-3.05-.986-4.589-20.769-94.97-153.32-94.97-174.089 0-.337 1.512-.674 3.051-.985 4.59-1.297-.85-2.593-1.698-3.864-2.52C114.4 21.142 20.692 117.016 71.643 199.2c.83 1.326 1.633 2.652 2.463 3.952-1.504.345-2.982.664-4.486 1.008-92.827 21.25-92.827 156.862 0 178.111 1.478.345 2.982.69 4.486 1.008-.83 1.327-1.66 2.653-2.463 3.953-50.977 82.184 42.757 178.084 123.086 125.929 1.297-.848 2.593-1.671 3.864-2.52.337 1.539.648 3.051.985 4.59 20.769 94.971 153.32 94.971 174.089 0 .338-1.513.675-3.051.986-4.59 1.296.849 2.593 1.698 3.863 2.52 80.329 52.155 174.064-43.745 123.087-125.929-.83-1.327-1.634-2.653-2.464-3.953l.026.027Z"/><path fill="#fff" d="M182.869 305.971c25.288 0 45.783-30.558 45.783-68.234 0-37.676-20.495-68.234-45.783-68.234-25.289 0-45.76 30.558-45.76 68.234 0 37.676 20.495 68.234 45.76 68.234ZM82.193 271.609c25.288 0 45.783-30.558 45.783-68.234 0-37.676-20.495-68.234-45.783-68.234-25.289 0-45.76 30.558-45.76 68.234 0 37.676 20.495 68.234 45.76 68.234Z"/><path fill="#231F20" d="M205.424 220.828c0-18.335-3.451-35.173-9.18-48.378-4.243-1.914-8.725-2.97-13.375-2.97-25.265 0-45.76 30.559-45.76 68.234 0 25.65 9.493 48.01 23.539 59.644 1.199.196 2.421.319 3.668.319 22.723 0 41.132-34.412 41.132-76.874l-.024.025ZM104.749 186.464c0-18.334-3.452-35.172-9.18-48.377-4.244-1.914-8.726-2.97-13.376-2.97-25.265 0-45.76 30.558-45.76 68.234 0 25.649 9.493 48.009 23.54 59.644a22.69 22.69 0 0 0 3.667.319c22.724 0 41.133-34.412 41.133-76.874l-.024.024Z"/></svg>