<svg width="123" height="123" viewBox="0 0 123 123" fill="none" xmlns="http://www.w3.org/2000/svg">
<path d="M0.00314331 61.4992C0.00314331 58.438 3.74804 55.5911 10.1791 53.2153C19.071 49.9304 23.3201 39.6708 19.3546 31.0608C16.4873 24.836 15.8524 20.1757 18.0171 18.0126C20.1817 15.8478 24.8404 16.4828 31.0651 19.3502C39.675 23.3157 49.9345 19.0666 53.2193 10.1745C55.5936 3.74494 58.4404 0 61.5016 0C64.5627 0 67.4096 3.74494 69.7854 10.1761C73.0702 19.0681 83.3297 23.3172 91.9396 19.3517C98.1643 16.4843 102.825 15.8494 104.988 18.0141C107.152 20.1789 106.517 24.8376 103.65 31.0623C99.6846 39.6724 103.934 49.932 112.826 53.2169C119.255 55.5896 123 58.438 123 61.4992C123 64.5604 119.255 67.4073 112.824 69.7831C103.932 73.068 99.6831 83.3276 103.649 91.9377C106.516 98.1624 107.151 102.823 104.986 104.986C102.821 107.151 98.1627 106.516 91.9381 103.648C83.3281 99.6828 73.0687 103.932 69.7838 112.824C67.408 119.255 64.5611 123 61.5 123C58.4389 123 55.592 119.255 53.2162 112.824C49.9313 103.932 39.6719 99.6828 31.0619 103.648C24.8373 106.516 20.177 107.151 18.0139 104.986C15.8492 102.821 16.4841 98.1624 19.3515 91.9377C23.3169 83.3276 19.0679 73.068 10.1759 69.7831C3.74488 67.4089 0 64.5604 0 61.4992H0.00314331Z" fill="#FFCD58"/>
<path d="M71.0805 64.7058C75.5239 64.0213 78.0343 56.3799 76.6876 47.6383C75.341 38.8966 70.6472 32.3651 66.2037 33.0496C61.7603 33.7341 59.2499 41.3756 60.5966 50.1172C61.9432 58.8588 66.637 65.3904 71.0805 64.7058Z" fill="white"/>
<mask id="mask0_772_1523" style="mask-type:luminance" maskUnits="userSpaceOnUse" x="60" y="33" width="18" height="32">
<path d="M71.0824 64.7058C75.5259 64.0213 78.0363 56.3799 76.6896 47.6382C75.343 38.8966 70.6492 32.3651 66.2057 33.0496C61.7623 33.7341 59.2518 41.3755 60.5985 50.1172C61.9452 58.8588 66.639 65.3903 71.0824 64.7058Z" fill="white"/>
</mask>
<g mask="url(#mask0_772_1523)">
<path d="M72.8725 62.0184C76.8963 61.3985 79.2289 54.8636 78.0826 47.4223C76.9363 39.9809 72.745 34.451 68.7212 35.0709C64.6975 35.6908 62.3648 42.2258 63.5112 49.6671C64.6575 57.1084 68.8488 62.6383 72.8725 62.0184Z" fill="#4C3500"/>
</g>
<path d="M97.2836 60.6687C101.727 59.9842 104.237 52.3427 102.891 43.6011C101.544 34.8595 96.8503 28.3279 92.4069 29.0125C87.9635 29.697 85.453 37.3384 86.7997 46.0801C88.1464 54.8217 92.8402 61.3532 97.2836 60.6687Z" fill="white"/>
<mask id="mask1_772_1523" style="mask-type:luminance" maskUnits="userSpaceOnUse" x="86" y="28" width="18" height="33">
<path d="M97.2836 60.6687C101.727 59.9842 104.237 52.3427 102.891 43.6011C101.544 34.8595 96.8503 28.3279 92.4069 29.0125C87.9635 29.697 85.453 37.3384 86.7997 46.0801C88.1464 54.8217 92.8402 61.3532 97.2836 60.6687Z" fill="white"/>
</mask>
<g mask="url(#mask1_772_1523)">
<path d="M99.0757 57.9833C103.099 57.3634 105.432 50.8284 104.286 43.3871C103.139 35.9458 98.9482 30.4159 94.9244 31.0358C90.9006 31.6557 88.568 38.1906 89.7143 45.6319C90.8607 53.0733 95.0519 58.6032 99.0757 57.9833Z" fill="#4C3500"/>
</g>
</svg>
