<svg xmlns="http://www.w3.org/2000/svg" width="100" height="96" fill="none"><g clip-path="url(#a)"><path fill="#FFA726" d="M91.221 37.319q.268.07.532.141c10.995 2.959 10.995 17.92 0 20.878l-.532.143q.195.188.388.38c7.98 7.83.166 20.785-10.904 18.078q-.264-.064-.53-.13.07.256.136.508c2.825 10.605-10.698 18.09-18.872 10.446q-.196-.185-.396-.37-.073.255-.148.51c-3.088 10.532-18.705 10.532-21.793 0q-.076-.255-.148-.51-.197.186-.396.37c-8.174 7.644-21.697.159-18.872-10.446l.136-.507-.53.13C8.222 79.645.408 66.69 8.388 58.86q.194-.188.386-.38l-.532-.143c-10.995-2.958-10.995-17.92 0-20.878l.532-.143q-.195-.188-.386-.38c-7.98-7.83-.166-20.784 10.904-18.078l.53.13q-.07-.256-.136-.508C16.861 7.877 30.384.391 38.558 8.036l.394.37.15-.51c3.088-10.533 18.706-10.533 21.794 0l.15.51q.196-.187.394-.37C69.613.39 83.136 7.876 80.31 18.48q-.067.253-.135.508.265-.067.53-.13c11.07-2.706 18.883 10.248 10.903 18.078-.13.126-.256.252-.386.38z"/><path fill="#fff" d="M27.982 41.271c6.874 0 12.447 2.156 12.447 4.814 0 2.66-5.573 4.814-12.447 4.814s-12.447-2.155-12.447-4.814c0-2.658 5.573-4.814 12.447-4.814"/><path fill="#263C84" d="M27.982 41.271c2.903 0 5.256 2.156 5.256 4.814 0 2.66-2.353 4.814-5.256 4.814s-5.255-2.155-5.255-4.814c0-2.658 2.353-4.814 5.255-4.814"/><path fill="#fff" d="M64.183 41.271c6.874 0 12.447 2.156 12.447 4.814 0 2.66-5.572 4.814-12.447 4.814s-12.447-2.155-12.447-4.814c0-2.658 5.573-4.814 12.447-4.814"/><path fill="#263C84" d="M64.184 41.271c2.902 0 5.255 2.156 5.255 4.814 0 2.66-2.353 4.814-5.255 4.814-2.903 0-5.256-2.155-5.256-4.814 0-2.658 2.353-4.814 5.256-4.814"/></g><defs><clipPath id="a"><path fill="#fff" d="M0 95.798h100V0H0z"/></clipPath></defs></svg>