<svg width="100" height="100" viewBox="0 0 100 100" fill="none" xmlns="http://www.w3.org/2000/svg">
<path d="M8.7778 61.0425C8.59985 60.994 8.4219 60.9434 8.24596 60.8949C-2.74864 57.8072 -2.74864 42.1908 8.24596 39.1031C8.4219 39.0526 8.59985 39.0041 8.7778 38.9535C8.64838 38.8221 8.51896 38.6906 8.38954 38.5572C0.410004 30.384 8.22372 16.8625 19.2932 19.6873C19.4691 19.7318 19.645 19.7783 19.823 19.8228C19.7765 19.6449 19.732 19.4689 19.6875 19.293C16.8625 8.22426 30.3848 0.411019 38.5585 8.39007C38.6899 8.51948 38.8214 8.64687 38.9548 8.77628C39.0034 8.59834 39.0539 8.4204 39.1025 8.24448C42.1903 -2.74946 57.8077 -2.74946 60.8955 8.24448C60.9461 8.4204 60.9946 8.59834 61.0431 8.77628C61.1746 8.64687 61.306 8.51746 61.4395 8.39007C69.6132 0.411019 83.1355 8.22426 80.3105 19.293C80.266 19.4689 80.2195 19.6449 80.175 19.8228C80.353 19.7763 80.5289 19.7318 80.7048 19.6873C91.7743 16.8625 99.588 30.384 91.6084 38.5572C91.479 38.6886 91.3516 38.8201 91.2222 38.9535C91.4002 39.002 91.5781 39.0526 91.754 39.1031C102.749 42.1908 102.749 57.8072 91.754 60.8949C91.5781 60.9454 91.4002 60.994 91.2222 61.0445C91.3516 61.176 91.481 61.3074 91.6084 61.4408C99.588 69.614 91.7743 83.1355 80.7048 80.3107C80.5289 80.2662 80.353 80.2197 80.175 80.1752C80.2215 80.3532 80.266 80.5291 80.3105 80.705C83.1355 91.7738 69.6132 99.587 61.4395 91.608C61.3081 91.4786 61.1766 91.3512 61.0452 91.2218C60.9966 91.3997 60.9461 91.5776 60.8955 91.7536C57.8077 102.748 42.1903 102.748 39.1025 91.7536C39.0519 91.5776 39.0034 91.3997 38.9528 91.2218C38.8214 91.3512 38.6899 91.4806 38.5585 91.608C30.3848 99.587 16.8625 91.7738 19.6875 80.705C19.732 80.5291 19.7785 80.3532 19.823 80.1752C19.645 80.2217 19.4691 80.2662 19.2932 80.3107C8.22372 83.1355 0.410004 69.614 8.38954 61.4408C8.51896 61.3094 8.64635 61.178 8.77578 61.0445L8.7778 61.0425Z" fill="#FF6C75"/>
<g clip-path="url(#clip0_772_1524)">
<path d="M55.5899 44.8282C58.374 44.8282 60.631 42.6064 60.631 39.8657C60.631 37.1251 58.374 34.9033 55.5899 34.9033C52.8058 34.9033 50.5488 37.1251 50.5488 39.8657C50.5488 42.6064 52.8058 44.8282 55.5899 44.8282Z" fill="#F1EF8A"/>
<path d="M25.4003 41.7705C29.1645 41.3494 31.9689 39.8654 31.9689 39.8654C31.9689 39.8654 29.1645 38.3808 25.4003 37.9602C24.973 34.2547 23.4649 31.4941 23.4649 31.4941C23.4649 31.4941 21.9568 34.2547 21.5295 37.9602C17.7652 38.3813 14.9609 39.8654 14.9609 39.8654C14.9609 39.8654 17.7652 41.3499 21.5295 41.7705C21.9573 45.4761 23.4649 48.2366 23.4649 48.2366C23.4649 48.2366 24.973 45.4761 25.4003 41.7705Z" fill="#FFC2C2"/>
<path d="M50.5494 50.4209C50.5494 54.3189 45.663 57.4784 39.635 57.4784C33.6071 57.4784 28.7207 54.3189 28.7207 50.4209" fill="#FFC2C2"/>
</g>
<defs>
<clipPath id="clip0_772_1524">
<rect width="45.6693" height="25.9843" fill="white" transform="translate(14.9609 31.4941)"/>
</clipPath>
</defs>
</svg>
