<svg xmlns="http://www.w3.org/2000/svg" width="35" height="35" fill="none"><g clip-path="url(#a)"><path fill="#648FF7" d="m31.928 13.635.186.051c3.848 1.081 3.848 6.547 0 7.628l-.186.052.136.14c2.793 2.86.058 7.593-3.817 6.604l-.185-.047.047.185c.989 3.874-3.744 6.61-6.605 3.816l-.139-.135c-.016.063-.034.125-.051.186-1.081 3.849-6.547 3.849-7.628 0l-.052-.186-.138.135c-2.861 2.793-7.594.058-6.605-3.816l.047-.185-.185.047c-3.875.989-6.61-3.744-3.817-6.605l.135-.139a16.19 16.19 0 0 1-.186-.052c-3.848-1.08-3.848-6.547 0-7.628l.186-.052-.135-.139c-2.793-2.86-.058-7.593 3.817-6.605l.185.048-.047-.186C5.9 2.878 10.635.143 13.496 2.936l.138.135.052-.186c1.08-3.848 6.547-3.848 7.628 0l.052.186.138-.135c2.861-2.793 7.594-.058 6.605 3.816l-.047.186.185-.048c3.875-.988 6.61 3.744 3.817 6.605l-.136.139Z"/><path fill="#fff" d="M9.794 15.079c2.406 0 4.356.787 4.356 1.758 0 .972-1.95 1.76-4.356 1.76-2.406 0-4.357-.788-4.357-1.76 0-.971 1.95-1.758 4.357-1.758Z"/><path fill="#263C84" d="M9.794 15.079c1.016 0 1.84.787 1.84 1.758 0 .972-.824 1.76-1.84 1.76s-1.84-.788-1.84-1.76c0-.971.824-1.758 1.84-1.758Z"/><path fill="#fff" d="M22.465 15.079c2.406 0 4.356.787 4.356 1.758 0 .972-1.95 1.76-4.356 1.76-2.406 0-4.357-.788-4.357-1.76 0-.971 1.95-1.758 4.357-1.758Z"/><path fill="#263C84" d="M22.465 15.079c1.015 0 1.84.787 1.84 1.758 0 .972-.825 1.76-1.84 1.76-1.016 0-1.84-.788-1.84-1.76 0-.971.824-1.758 1.84-1.758Z"/></g><defs><clipPath id="a"><path fill="#fff" d="M0 35h35V0H0z"/></clipPath></defs></svg>