<svg xmlns="http://www.w3.org/2000/svg" width="90" height="86" fill="none"><path fill="#BDBDBD" d="M7.9 52.497c-.16-.041-.32-.085-.479-.127-9.895-2.655-9.895-16.085 0-18.74l.479-.13-.35-.34c-7.181-7.029-.149-18.657 9.814-16.228.158.038.316.078.477.116l-.122-.455C15.176 7.073 27.346.354 34.703 7.216c.118.112.236.221.356.332l.133-.457c2.78-9.455 16.835-9.455 19.614 0 .046.151.09.304.133.457.118-.11.236-.222.356-.332 7.357-6.862 19.527-.142 16.984 9.377l-.121.455.476-.116c9.963-2.43 16.995 9.2 9.814 16.228l-.348.34.479.13c9.895 2.655 9.895 16.085 0 18.74l-.479.13c.117.112.233.225.348.34 7.181 7.029.149 18.657-9.814 16.228l-.477-.117.123.456c2.542 9.52-9.628 16.239-16.985 9.377l-.354-.333c-.044.154-.09.307-.135.458-2.78 9.455-16.835 9.455-19.614 0l-.135-.458-.354.333c-7.357 6.862-19.527.142-16.984-9.377.04-.151.082-.302.122-.456l-.477.117C7.4 71.498.369 59.868 7.55 52.84l.347-.34.002-.003Z"/><g clip-path="url(#a)"><path fill="#FFD779" d="M57.005 43.234c1.94 0 3.512-1.522 3.512-3.398 0-1.877-1.572-3.398-3.512-3.398-1.939 0-3.51 1.52-3.51 3.398 0 1.876 1.571 3.398 3.51 3.398Z"/><path fill="#F3F3F4" d="M35.978 41.14c2.622-.288 4.576-1.304 4.576-1.304s-1.954-1.017-4.576-1.305c-.297-2.537-1.348-4.428-1.348-4.428s-1.05 1.89-1.348 4.428c-2.622.289-4.575 1.305-4.575 1.305s1.953 1.016 4.575 1.304c.298 2.538 1.348 4.428 1.348 4.428s1.05-1.89 1.348-4.428ZM53.495 47.064c0 2.67-3.403 4.833-7.602 4.833-4.198 0-7.602-2.164-7.602-4.833"/></g><defs><clipPath id="a"><path fill="#fff" d="M28.707 34.103h31.81v17.793h-31.81z"/></clipPath></defs></svg>