<svg xmlns="http://www.w3.org/2000/svg" width="598" height="572" fill="none"><g clip-path="url(#a)"><path fill="#FFC16B" d="m597.909 286.029.091-.058-.091-.058C521.91 247.177 485.281 162.601 510.401 83.82v-.088h-.061C427.978 107.818 339.526 72.752 299.03.087L298.97 0l-.061.087C258.413 72.781 169.992 107.818 87.629 83.79h-.09v.059C112.718 162.63 76.058 247.236.09 285.942L0 286l.091.058C76.09 324.794 112.72 409.37 87.6 488.151v.088h.061c82.362-23.999 170.814 11.038 211.279 83.703l.061.087.061-.087c40.496-72.694 128.917-107.731 211.279-83.703h.091v-.059c-25.089-78.781 11.54-163.386 87.508-202.093l-.03-.058Z"/><path fill="#fff" d="M451.386 326.68c-28.469 0-51.549-31.309-51.549-69.928 0-38.618 23.08-69.927 51.549-69.927 28.468 0 51.518 31.309 51.518 69.927 0 38.619-23.08 69.928-51.518 69.928ZM326.518 320.855c-28.469 0-51.518-31.309-51.518-69.928C275 212.309 298.08 181 326.518 181c28.439 0 51.518 31.309 51.518 69.927 0 38.619-23.079 69.928-51.518 69.928Z"/><path fill="#231F20" d="M502.904 256.752c0-38.618-23.079-69.927-51.548-69.927-5.237 0-10.292 1.078-15.072 3.029-6.455 13.543-10.322 30.784-10.322 49.599 0 43.511 20.735 78.752 46.311 78.752a27.27 27.27 0 0 0 4.111-.321c15.802-11.941 26.52-34.832 26.52-61.132ZM378.067 250.927c0-38.618-23.08-69.927-51.518-69.927-5.237 0-10.291 1.078-15.072 3.029-6.455 13.543-10.322 30.784-10.322 49.599 0 43.511 20.735 78.751 46.312 78.751 1.4 0 2.771-.116 4.11-.32 15.803-11.941 26.521-34.833 26.521-61.132h-.031Z"/></g><defs><clipPath id="a"><path fill="#fff" d="M0 0h598v572H0z"/></clipPath></defs></svg>