<svg xmlns="http://www.w3.org/2000/svg" width="70" height="84" fill="none"><g filter="url(#a)"><path fill="#fff" fill-rule="evenodd" d="M35 67c13.807 0 25-11.193 25-25S48.807 17 35 17 10 28.193 10 42s11.193 25 25 25Z" clip-rule="evenodd"/><path stroke="#fff" stroke-width="3" d="M58.5 42c0 12.979-10.521 23.5-23.5 23.5S11.5 54.979 11.5 42 22.021 18.5 35 18.5 58.5 29.021 58.5 42Z"/></g><g clip-path="url(#b)"><path stroke="#25282B" stroke-linecap="round" stroke-linejoin="round" stroke-width="2" d="M39 52v-3.87a3.37 3.37 0 0 0-.94-2.61c3.14-.35 6.44-1.54 6.44-7a5.44 5.44 0 0 0-1.5-3.75 5.07 5.07 0 0 0-.09-3.77s-1.18-.35-3.91 1.48a13.382 13.382 0 0 0-7 0C29.27 30.65 28.09 31 28.09 31a5.07 5.07 0 0 0-.09 3.77 5.44 5.44 0 0 0-1.5 3.78c0 5.42 3.3 6.61 6.44 7a3.371 3.371 0 0 0-.94 2.58V52m0-3c-5 1.5-5-2.5-7-3l7 3Z"/></g><defs><clipPath id="b"><path fill="#fff" d="M23 30h24v24H23z"/></clipPath><filter id="a" width="70" height="84" x="0" y="0" color-interpolation-filters="sRGB" filterUnits="userSpaceOnUse"><feFlood flood-opacity="0" result="BackgroundImageFix"/><feColorMatrix in="SourceAlpha" result="hardAlpha" values="0 0 0 0 0 0 0 0 0 0 0 0 0 0 0 0 0 0 127 0"/><feOffset dy="7"/><feGaussianBlur stdDeviation="5"/><feColorMatrix values="0 0 0 0 0.294118 0 0 0 0 0.294118 0 0 0 0 0.294118 0 0 0 0.1 0"/><feBlend in2="BackgroundImageFix" result="effect1_dropShadow_1135_961"/><feColorMatrix in="SourceAlpha" result="hardAlpha" values="0 0 0 0 0 0 0 0 0 0 0 0 0 0 0 0 0 0 127 0"/><feOffset dy="-7"/><feGaussianBlur stdDeviation="5"/><feColorMatrix values="0 0 0 0 0.294118 0 0 0 0 0.294118 0 0 0 0 0.294118 0 0 0 0.01 0"/><feBlend in2="effect1_dropShadow_1135_961" result="effect2_dropShadow_1135_961"/><feBlend in="SourceGraphic" in2="effect2_dropShadow_1135_961" result="shape"/></filter></defs></svg>