<svg xmlns="http://www.w3.org/2000/svg" width="70" height="84" fill="none"><g filter="url(#a)"><path fill="#fff" fill-rule="evenodd" d="M35 67c13.807 0 25-11.193 25-25S48.807 17 35 17 10 28.193 10 42s11.193 25 25 25Z" clip-rule="evenodd"/><path stroke="#fff" stroke-width="3" d="M58.5 42c0 12.979-10.521 23.5-23.5 23.5S11.5 54.979 11.5 42 22.021 18.5 35 18.5 58.5 29.021 58.5 42Z"/></g><path stroke="#25282B" stroke-linecap="round" stroke-linejoin="round" stroke-width="2" d="M27 34h16c1.1 0 2 .9 2 2v12c0 1.1-.9 2-2 2H27c-1.1 0-2-.9-2-2V36c0-1.1.9-2 2-2Z"/><path stroke="#25282B" stroke-linecap="round" stroke-linejoin="round" stroke-width="2" d="m45 36-10 7-10-7"/><defs><filter id="a" width="70" height="84" x="0" y="0" color-interpolation-filters="sRGB" filterUnits="userSpaceOnUse"><feFlood flood-opacity="0" result="BackgroundImageFix"/><feColorMatrix in="SourceAlpha" result="hardAlpha" values="0 0 0 0 0 0 0 0 0 0 0 0 0 0 0 0 0 0 127 0"/><feOffset dy="7"/><feGaussianBlur stdDeviation="5"/><feColorMatrix values="0 0 0 0 0.294118 0 0 0 0 0.294118 0 0 0 0 0.294118 0 0 0 0.1 0"/><feBlend in2="BackgroundImageFix" result="effect1_dropShadow_1135_945"/><feColorMatrix in="SourceAlpha" result="hardAlpha" values="0 0 0 0 0 0 0 0 0 0 0 0 0 0 0 0 0 0 127 0"/><feOffset dy="-7"/><feGaussianBlur stdDeviation="5"/><feColorMatrix values="0 0 0 0 0.294118 0 0 0 0 0.294118 0 0 0 0 0.294118 0 0 0 0.01 0"/><feBlend in2="effect1_dropShadow_1135_945" result="effect2_dropShadow_1135_945"/><feBlend in="SourceGraphic" in2="effect2_dropShadow_1135_945" result="shape"/></filter></defs></svg>