<svg width="58" height="56" viewBox="0 0 58 56" fill="none" xmlns="http://www.w3.org/2000/svg">
<g clip-path="url(#clip0_772_833)">
<path d="M52.9085 21.8152C53.0117 21.8424 53.115 21.8707 53.217 21.8979C59.5941 23.6271 59.5941 32.3729 53.217 34.1021C53.115 34.1304 53.0117 34.1576 52.9085 34.1859C52.9836 34.2595 53.0587 34.3331 53.1337 34.4078C57.762 38.9851 53.2299 46.5577 46.8094 44.9757C46.7074 44.9508 46.6054 44.9248 46.5021 44.8999C46.5291 44.9995 46.5549 45.098 46.5807 45.1965C48.2193 51.3955 40.3761 55.7712 35.6352 51.3026C35.559 51.2302 35.4827 51.1588 35.4053 51.0863C35.3772 51.186 35.3478 51.2856 35.3197 51.3842C33.5287 57.5412 24.4704 57.5412 22.6793 51.3842C22.65 51.2856 22.6219 51.186 22.5937 51.0863C22.5175 51.1588 22.4412 51.2313 22.3638 51.3026C17.6229 55.7712 9.77975 51.3955 11.4183 45.1965C11.4441 45.098 11.4711 44.9995 11.4969 44.8999C11.3937 44.9259 11.2916 44.9508 11.1896 44.9757C4.76912 46.5577 0.237026 38.9851 4.8653 34.4078C4.94036 34.3342 5.01426 34.2606 5.08932 34.1859C4.98611 34.1587 4.88289 34.1304 4.78085 34.1021C-1.59622 32.3729 -1.59622 23.6271 4.78085 21.8979C4.88289 21.8695 4.98611 21.8424 5.08932 21.814C5.01426 21.7404 4.93919 21.6668 4.8653 21.5921C0.237026 17.0148 4.76912 9.44221 11.1896 11.0242C11.2916 11.0491 11.3937 11.0752 11.4969 11.1001C11.4699 11.0004 11.4441 10.9019 11.4183 10.8034C9.77975 4.60445 17.6229 0.228722 22.3638 4.69731C22.4401 4.76978 22.5163 4.84113 22.5925 4.9136C22.6207 4.81395 22.65 4.71429 22.6793 4.61577C24.4704 -1.54127 33.5287 -1.54127 35.3197 4.61577C35.349 4.71429 35.3772 4.81395 35.4065 4.9136C35.4827 4.84113 35.559 4.76865 35.6352 4.69731C40.3761 0.228722 48.2193 4.60445 46.5807 10.8034C46.5549 10.9019 46.5279 11.0004 46.5021 11.1001C46.6054 11.074 46.7074 11.0491 46.8094 11.0242C53.2299 9.44221 57.762 17.0148 53.1337 21.5921C53.0587 21.6657 52.9848 21.7393 52.9097 21.814L52.9085 21.8152Z" fill="#FFA726"/>
<path d="M16.229 24.1267C20.216 24.1267 23.4482 25.3866 23.4482 26.9408C23.4482 28.495 20.216 29.7549 16.229 29.7549C12.2419 29.7549 9.00977 28.495 9.00977 26.9408C9.00977 25.3866 12.2419 24.1267 16.229 24.1267Z" fill="white"/>
<path d="M16.229 24.1267C17.9126 24.1267 19.2774 25.3866 19.2774 26.9408C19.2774 28.495 17.9126 29.7549 16.229 29.7549C14.5455 29.7549 13.1807 28.495 13.1807 26.9408C13.1807 25.3866 14.5455 24.1267 16.229 24.1267Z" fill="#263C84"/>
<path d="M37.227 24.1267C41.2141 24.1267 44.4462 25.3866 44.4462 26.9408C44.4462 28.495 41.2141 29.7549 37.227 29.7549C33.24 29.7549 30.0078 28.495 30.0078 26.9408C30.0078 25.3866 33.24 24.1267 37.227 24.1267Z" fill="white"/>
<path d="M37.2271 24.1267C38.9107 24.1267 40.2755 25.3866 40.2755 26.9408C40.2755 28.495 38.9107 29.7549 37.2271 29.7549C35.5435 29.7549 34.1787 28.495 34.1787 26.9408C34.1787 25.3866 35.5435 24.1267 37.2271 24.1267Z" fill="#263C84"/>
</g>
<defs>
<clipPath id="clip0_772_833">
<rect width="58" height="56" fill="white" transform="matrix(1 0 0 -1 0 56)"/>
</clipPath>
</defs>
</svg>
