<svg width="160" height="159" viewBox="0 0 160 159" fill="none" xmlns="http://www.w3.org/2000/svg">
<mask id="mask0_763_1056" style="mask-type:alpha" maskUnits="userSpaceOnUse" x="0" y="0" width="148" height="148">
<rect x="0.712891" y="0.5" width="146.787" height="146.001" rx="19.5" fill="white" stroke="white"/>
</mask>
<g mask="url(#mask0_763_1056)">
<path d="M156.579 117.208C157.043 117.105 157.499 117.011 157.963 116.908C186.603 110.585 186.603 70.2303 157.963 63.9071C157.507 63.8045 157.043 63.7019 156.579 63.6072C156.835 63.2125 157.091 62.8178 157.339 62.431C173.067 37.9751 144.147 9.43806 119.363 24.9578C118.963 25.2104 118.563 25.4551 118.171 25.7077C118.067 25.2499 117.971 24.7999 117.867 24.3421C111.459 -3.91871 70.5625 -3.91871 64.1545 24.3421C64.0505 24.792 63.9465 25.2499 63.8505 25.7077C63.4505 25.4551 63.0505 25.2025 62.6585 24.9578C37.8664 9.43806 8.95433 37.9672 24.6744 62.4231C24.9304 62.8178 25.1784 63.2125 25.4344 63.5993C24.9704 63.7019 24.5144 63.7966 24.0504 63.8992C-4.58971 70.2224 -4.58971 110.577 24.0504 116.9C24.5064 117.003 24.9704 117.105 25.4344 117.2C25.1784 117.595 24.9224 117.989 24.6744 118.376C8.94633 142.832 37.8664 171.369 62.6505 155.849C63.0505 155.597 63.4505 155.352 63.8425 155.099C63.9465 155.557 64.0425 156.007 64.1465 156.465C70.5545 184.726 111.451 184.726 117.859 156.465C117.963 156.015 118.067 155.557 118.163 155.099C118.563 155.352 118.963 155.605 119.355 155.849C144.139 171.369 173.059 142.832 157.331 118.376C157.075 117.982 156.827 117.587 156.571 117.2L156.579 117.208Z" fill="#A6EAFF"/>
<path d="M58.9892 94.195C66.7916 94.195 73.1148 85.1018 73.1148 73.8905C73.1148 62.6792 66.7916 53.5859 58.9892 53.5859C51.1869 53.5859 44.8711 62.6792 44.8711 73.8905C44.8711 85.1018 51.1943 94.195 58.9892 94.195Z" fill="white"/>
<path d="M27.9287 83.9685C35.731 83.9685 42.0543 74.8752 42.0543 63.6639C42.0543 52.4526 35.731 43.3594 27.9287 43.3594C20.1264 43.3594 13.8105 52.4526 13.8105 63.6639C13.8105 74.8752 20.1338 83.9685 27.9287 83.9685Z" fill="white"/>
<path d="M65.9485 68.8596C65.9485 63.4037 64.8835 58.3933 63.116 54.4638C61.807 53.8941 60.424 53.5801 58.9893 53.5801C51.1943 53.5801 44.8711 62.6733 44.8711 73.8846C44.8711 81.5171 47.7997 88.1708 52.1335 91.6328C52.5033 91.6913 52.8805 91.7278 53.2651 91.7278C60.2761 91.7278 65.9559 81.4879 65.9559 68.8523L65.9485 68.8596Z" fill="#231F20"/>
<path d="M34.8879 58.6331C34.8879 53.1771 33.823 48.1667 32.0554 44.2373C30.7464 43.6676 29.3634 43.3535 27.9287 43.3535C20.1338 43.3535 13.8105 52.4467 13.8105 63.6581C13.8105 71.2905 16.7392 77.9443 21.073 81.4063C21.4428 81.4647 21.82 81.5012 22.2045 81.5012C29.2155 81.5012 34.8953 71.2613 34.8953 58.6257L34.8879 58.6331Z" fill="#231F20"/>
</g>
</svg>
