<svg width="58" height="58" viewBox="0 0 58 58" fill="none" xmlns="http://www.w3.org/2000/svg">
<path d="M50.5024 37.403C50.6546 37.3693 50.8041 37.3383 50.9563 37.3046C60.3479 35.2311 60.3479 21.9981 50.9563 19.9246C50.8067 19.891 50.6546 19.8573 50.5024 19.8263C50.5864 19.6968 50.6703 19.5674 50.7516 19.4405C55.9092 11.421 46.4257 2.06313 38.2985 7.15236C38.1674 7.2352 38.0362 7.31545 37.9076 7.39828C37.8735 7.24814 37.8421 7.10059 37.808 6.95045C35.7066 -2.31682 22.296 -2.31682 20.1947 6.95045C20.1606 7.098 20.1265 7.24814 20.095 7.39828C19.9638 7.31545 19.8326 7.23261 19.7041 7.15236C11.5743 2.06313 2.09345 11.4184 7.24836 19.438C7.33231 19.5674 7.41363 19.6968 7.49758 19.8237C7.34542 19.8573 7.19589 19.8884 7.04374 19.922C-2.34791 21.9955 -2.34791 35.2286 7.04374 37.302C7.19327 37.3357 7.34542 37.3694 7.49758 37.4004C7.41363 37.5298 7.32968 37.6593 7.24836 37.7861C2.09082 45.8057 11.5743 55.1635 19.7015 50.0743C19.8326 49.9915 19.9638 49.9112 20.0924 49.8284C20.1265 49.9785 20.1579 50.1261 20.192 50.2762C22.2934 59.5435 35.704 59.5435 37.8053 50.2762C37.8394 50.1287 37.8735 49.9785 37.905 49.8284C38.0362 49.9112 38.1674 49.9941 38.2959 50.0743C46.4231 55.1635 55.9066 45.8057 50.749 37.7861C50.6651 37.6567 50.5837 37.5273 50.4998 37.4004L50.5024 37.403Z" fill="#A6EAFF"/>
<path d="M31.5208 34.0538C28.9622 34.0538 26.8887 31.072 26.8887 27.3956C26.8887 23.7192 28.9622 20.7373 31.5208 20.7373C34.0793 20.7373 36.1504 23.7192 36.1504 27.3956C36.1504 31.072 34.0769 34.0538 31.5208 34.0538Z" fill="white"/>
<path d="M41.7063 33.9777C39.1478 33.9777 37.0743 30.9958 37.0743 27.3194C37.0743 23.643 39.1478 20.6611 41.7063 20.6611C44.2649 20.6611 46.3359 23.643 46.3359 27.3194C46.3359 30.9958 44.2624 33.9777 41.7063 33.9777Z" fill="white"/>
<path d="M29.2387 25.7458C29.2387 23.9567 29.5879 22.3137 30.1675 21.0252C30.5968 20.8383 31.0503 20.7354 31.5208 20.7354C34.0769 20.7354 36.1504 23.7172 36.1504 27.3936C36.1504 29.8965 35.19 32.0783 33.7689 33.2136C33.6476 33.2328 33.5239 33.2447 33.3978 33.2447C31.0988 33.2447 29.2363 29.8869 29.2363 25.7434L29.2387 25.7458Z" fill="#231F20"/>
<path d="M39.4242 25.6696C39.4242 23.8805 39.7735 22.2375 40.3531 20.949C40.7823 20.7622 41.2358 20.6592 41.7063 20.6592C44.2624 20.6592 46.3359 23.641 46.3359 27.3174C46.3359 29.8203 45.3756 32.0022 43.9544 33.1374C43.8332 33.1566 43.7095 33.1686 43.5834 33.1686C41.2843 33.1686 39.4218 29.8107 39.4218 25.6672L39.4242 25.6696Z" fill="#231F20"/>
</svg>
