<svg width="2103" height="248" viewBox="0 0 2103 248" fill="none" xmlns="http://www.w3.org/2000/svg">
<path d="M0 191.835V8.90723C4.56738 44.502 36.1533 72.0605 74.4375 72.0605C101.627 72.0605 125.438 58.1611 138.591 37.3545C151.352 15.0869 176.012 0 204.339 0C232.667 0 257.327 15.0869 270.088 37.3545C283.241 58.1611 307.052 72.0605 334.241 72.0605C361.431 72.0605 385.241 58.1611 398.395 37.3545C411.155 15.0869 435.815 0 464.144 0C492.471 0 517.131 15.0869 529.892 37.3545C542.968 58.0391 566.576 71.8975 593.566 72.0596C620.557 71.8975 644.164 58.0391 657.241 37.3545C670.002 15.0879 694.662 0 722.989 0C751.317 0 775.977 15.0879 788.738 37.3545C801.892 58.1611 825.702 72.0605 852.892 72.0605C880.081 72.0605 903.891 58.1611 917.045 37.3545C929.806 15.0879 954.466 0 982.793 0C1011.12 0 1035.78 15.0879 1048.54 37.3545C1061.62 58.0391 1085.23 71.8975 1112.22 72.0596C1139.21 71.8975 1162.81 58.0391 1175.89 37.3545C1188.65 15.0879 1213.31 0 1241.64 0C1269.97 0 1294.63 15.0879 1307.39 37.3545C1320.54 58.1611 1344.35 72.0605 1371.54 72.0605C1398.73 72.0605 1422.54 58.1611 1435.69 37.3545C1448.46 15.0879 1473.12 0 1501.44 0C1529.77 0 1554.43 15.0879 1567.19 37.3545C1580.27 58.0391 1603.88 71.8975 1630.87 72.0596C1657.86 71.8975 1681.46 58.0391 1694.54 37.3545C1707.3 15.0879 1731.96 0 1760.29 0C1788.62 0 1813.28 15.0879 1826.04 37.3545C1839.19 58.1611 1863 72.0605 1890.19 72.0605C1917.38 72.0605 1941.19 58.1611 1954.34 37.3545C1967.11 15.0879 1991.77 0 2020.09 0C2048.42 0 2073.08 15.0879 2085.84 37.3545C2090.39 44.5459 2096.21 50.9121 2103 56.165V239.093C2098.43 203.498 2066.85 175.939 2028.56 175.939C2001.37 175.939 1977.56 189.839 1964.41 210.646C1951.65 232.912 1926.99 248 1898.66 248C1870.33 248 1845.67 232.912 1832.91 210.646C1819.76 189.839 1795.95 175.939 1768.76 175.939C1741.57 175.939 1717.76 189.839 1704.61 210.646C1691.84 232.912 1667.18 248 1638.86 248C1610.53 248 1585.87 232.912 1573.11 210.646C1560.03 189.961 1536.42 176.103 1509.43 175.94C1482.44 176.103 1458.84 189.961 1445.76 210.646C1433 232.912 1408.34 248 1380.01 248C1351.68 248 1327.02 232.912 1314.26 210.646C1301.11 189.839 1277.3 175.939 1250.11 175.939C1222.92 175.939 1199.11 189.839 1185.96 210.646C1173.19 232.912 1148.53 248 1120.21 248C1091.88 248 1067.22 232.912 1054.46 210.646C1041.38 189.961 1017.77 176.103 990.783 175.94C963.794 176.103 940.186 189.961 927.109 210.646C914.348 232.912 889.688 248 861.36 248C833.033 248 808.373 232.912 795.612 210.646C782.458 189.839 758.648 175.939 731.459 175.939C704.27 175.939 680.459 189.839 667.306 210.646C654.544 232.912 629.885 248 601.557 248C573.229 248 548.569 232.912 535.809 210.646C522.732 189.961 499.124 176.103 472.134 175.94C445.144 176.103 421.535 189.961 408.459 210.646C395.698 232.913 371.038 248 342.711 248C314.383 248 289.723 232.913 276.962 210.646C263.809 189.839 239.998 175.939 212.809 175.939C185.619 175.939 161.809 189.839 148.655 210.646C135.895 232.913 111.234 248 82.9062 248C54.5791 248 29.9189 232.913 17.1582 210.646C12.6123 203.454 6.79199 197.088 0 191.835Z" fill="#FFF4DB"/>
</svg>
