<svg width="526" height="423"  viewBox="0 0 1000 1000" fill="none" xmlns="http://www.w3.org/2000/svg">
<g clip-path="url(#clip0_1_1503)">
<rect width="1000" height="1000" fill="white"/>
<path d="M1000 0H0V1000H1000V0Z" fill="black"/>
<path d="M1000 0H0V1000H1000V0Z" fill="white"/>
<path d="M1000 0H0V1000H1000V0Z" fill="#ED3F38"/>
<path d="M661.431 133.559H338.571C317.493 133.559 300.406 150.646 300.406 171.724C300.406 192.801 317.493 209.888 338.571 209.888H661.431C682.509 209.888 699.596 192.801 699.596 171.724C699.596 150.646 682.509 133.559 661.431 133.559Z" fill="#262626"/>
<path d="M231.507 228.339H213.398V233.498H166.204V228.339H148.095V262.802H231.507V228.339ZM166.204 250.18V245.461H213.398V250.18H166.204ZM142.388 266.424V279.813H237.214V266.424H142.388ZM166.094 307.471H231.727V283.435H147.766V294.74H213.617V297.923H147.985V322.068H232.714V310.654H166.094V307.471ZM323.91 228.339V247.875H316.117V228.778H298.996V287.057H316.117V264.777H323.91V288.045H341.251V228.339H323.91ZM294.606 282.448V267.96C289.667 269.936 281.435 271.033 272.984 271.033H266.619V264.229H291.313V229.437H249.607V244.034H274.301V250.729H249.607V285.74H271.997C280.777 285.74 289.667 284.533 294.606 282.448ZM254.546 306.593H322.922V323.166H341.251V291.338H254.546V306.593ZM444.08 271.911H429.812V247.656H443.092V230.534H358.802V247.656H372.082V271.911H357.814V288.923H444.08V271.911ZM390.74 247.656H411.154V271.911H390.74V247.656ZM353.534 301.435V318.776H448.36V301.435H353.534ZM558.104 262.582H547.128V228.339H528.58V322.068H547.128V280.582H558.104V262.582ZM480.728 300.996V282.118H515.629V230.534H462.07V247.217H497.191V265.655H462.289V317.678H499.386C508.386 317.678 518.483 316.032 524.19 313.178V296.715C518.483 299.349 508.825 300.996 499.935 300.996H480.728ZM655.335 228.339H636.787V322.068H655.335V228.339ZM596.947 229.437C579.277 229.437 567.423 243.266 567.423 274.106C567.423 304.947 579.277 318.776 596.947 318.776C614.617 318.776 626.361 304.947 626.361 274.106C626.361 243.266 614.617 229.437 596.947 229.437ZM596.947 246.449C603.093 246.449 608.032 253.143 608.032 274.106C608.032 295.179 603.093 301.764 596.947 301.764C590.691 301.764 585.752 295.179 585.752 274.106C585.752 253.143 590.691 246.449 596.947 246.449ZM746.201 228.339V322.068H763.542V228.339H746.201ZM722.605 262.802H704.386V280.143H722.605V320.422H739.726V228.778H722.605V262.802ZM689.788 301.435V246.778H713.934V230.534H671.899V317.678H694.508C702.41 317.678 712.398 316.251 717.995 313.727V297.703C712.288 300.008 703.508 301.435 696.154 301.435H689.788ZM866.481 228.339H847.933V322.068H866.481V228.339ZM808.093 229.437C790.423 229.437 778.569 243.266 778.569 274.106C778.569 304.947 790.423 318.776 808.093 318.776C825.763 318.776 837.507 304.947 837.507 274.106C837.507 243.266 825.763 229.437 808.093 229.437ZM808.093 246.449C814.239 246.449 819.178 253.143 819.178 274.106C819.178 295.179 814.239 301.764 808.093 301.764C801.837 301.764 796.898 295.179 796.898 274.106C796.898 253.143 801.837 246.449 808.093 246.449Z" fill="white"/>
<path d="M428.673 159.319C428.488 157.756 427.738 156.543 426.422 155.68C425.107 154.817 423.493 154.385 421.581 154.385C420.183 154.385 418.96 154.611 417.912 155.063C416.874 155.516 416.062 156.137 415.476 156.929C414.9 157.72 414.613 158.62 414.613 159.627C414.613 160.47 414.813 161.194 415.214 161.801C415.625 162.397 416.149 162.895 416.786 163.296C417.424 163.687 418.092 164.011 418.791 164.268C419.49 164.514 420.132 164.715 420.718 164.869L423.925 165.732C424.747 165.948 425.662 166.246 426.669 166.626C427.687 167.007 428.658 167.526 429.583 168.184C430.518 168.831 431.289 169.664 431.896 170.681C432.502 171.699 432.805 172.948 432.805 174.428C432.805 176.134 432.358 177.676 431.464 179.053C430.58 180.43 429.285 181.525 427.579 182.337C425.883 183.149 423.822 183.555 421.396 183.555C419.135 183.555 417.177 183.19 415.522 182.46C413.878 181.731 412.583 180.713 411.637 179.408C410.702 178.102 410.172 176.586 410.049 174.859H413.996C414.099 176.052 414.499 177.039 415.198 177.82C415.908 178.591 416.802 179.166 417.881 179.546C418.971 179.916 420.142 180.101 421.396 180.101C422.856 180.101 424.166 179.865 425.328 179.392C426.489 178.909 427.409 178.241 428.088 177.388C428.766 176.525 429.105 175.517 429.105 174.366C429.105 173.318 428.812 172.465 428.226 171.807C427.64 171.149 426.87 170.615 425.914 170.203C424.958 169.792 423.925 169.432 422.815 169.124L418.929 168.014C416.463 167.305 414.51 166.292 413.071 164.977C411.632 163.661 410.912 161.94 410.912 159.812C410.912 158.044 411.39 156.502 412.346 155.187C413.312 153.861 414.607 152.833 416.231 152.103C417.866 151.363 419.69 150.993 421.705 150.993C423.74 150.993 425.549 151.358 427.132 152.088C428.715 152.807 429.968 153.794 430.894 155.048C431.829 156.302 432.322 157.725 432.374 159.319H428.673ZM466.002 183H461.994L473.588 151.425H477.535L489.129 183H485.12L475.685 156.42H475.438L466.002 183ZM467.482 170.666H483.64V174.058H467.482V170.666ZM519.662 183V151.425H523.486V179.608H538.164V183H519.662ZM569.699 183V151.425H588.756V154.817H573.523V165.486H587.769V168.877H573.523V179.608H589.002V183H569.699Z" fill="white"/>
<path d="M252.276 351.722H211.929V339.97H178.24V351.722H137.893V374.638H252.276V351.722ZM296.54 370.917V343.104H263.44V429.871H296.54V400.883H316.127V370.917H296.54ZM195.085 431.438C222.701 431.438 245.813 423.211 245.813 404.996C245.813 386.781 222.701 378.555 195.085 378.555C167.468 378.555 144.357 386.781 144.357 404.996C144.357 423.211 167.468 431.438 195.085 431.438ZM195.085 399.512C207.032 399.512 215.062 401.275 215.062 404.996C215.062 408.718 207.032 410.48 195.085 410.48C183.137 410.48 175.107 408.718 175.107 404.996C175.107 401.275 183.137 399.512 195.085 399.512ZM181.57 482.557H296.54V435.747H148.665V457.095H264.028V463.167H149.057V510.37H298.303V488.825H181.57V482.557ZM489.643 343.104H456.542V466.888H489.643V343.104ZM382.311 343.3C349.602 343.3 327.274 363.278 327.274 393.441C327.274 423.799 349.602 443.581 382.311 443.581C415.02 443.581 437.348 423.799 437.348 393.441C437.348 363.278 415.02 343.3 382.311 343.3ZM382.311 370.917C395.042 370.917 404.443 378.947 404.443 393.441C404.443 407.934 395.042 415.965 382.311 415.965C369.58 415.965 360.178 407.934 360.178 393.441C360.178 378.947 369.58 370.917 382.311 370.917ZM375.652 451.807H341.963V510.37H491.993V480.599H375.652V451.807ZM572.083 342.517H539.179V363.67H511.954V393.245H596.566V363.67H572.083V342.517ZM653.17 343.104V510.37H682.745V343.104H653.17ZM613.41 387.565H601.071V418.315H613.41V438.293H601.071V469.043H613.41V507.432H642.201V343.888H613.41V387.565ZM556.023 399.904C533.303 399.904 516.263 417.14 516.263 452.199C516.263 487.258 533.303 504.494 556.023 504.494C578.743 504.494 595.782 487.258 595.782 452.199C595.782 417.14 578.743 399.904 556.023 399.904ZM556.023 476.094C549.755 476.094 545.25 467.672 545.25 452.199C545.25 436.726 549.755 428.304 556.023 428.304C562.29 428.304 566.795 436.726 566.795 452.199C566.795 467.672 562.29 476.094 556.023 476.094ZM840.2 343.104V377.968H826.294V343.888H795.74V447.89H826.294V408.13H840.2V449.653H871.146V343.104H840.2ZM787.905 439.664V414.006C779.092 417.336 764.402 419.49 749.321 419.49H738.352V407.347H780.071V382.864H738.352V371.112H782.421V345.063H707.602V445.54H747.362C763.031 445.54 779.092 443.385 787.905 439.664ZM716.416 482.753H838.437V512.328H871.146V455.528H716.416V482.753Z" fill="#262626"/>
<path d="M126.685 1000C126.685 793.824 293.824 626.685 500 626.685C706.176 626.685 873.315 793.824 873.315 1000" fill="#262626"/>
<path d="M365.174 945.749C395.612 945.749 418.803 925.456 418.803 894.293C418.803 862.949 399.236 844.287 370.247 844.287C360.825 844.287 352.853 846.643 346.512 850.448L348.143 822.727H411.556V794.644H318.248L313.9 880.886H343.794C347.78 875.45 354.303 870.921 364.63 870.921C378.762 870.921 386.734 880.524 386.734 894.293C386.734 907.882 378.581 917.847 365.174 917.847C351.585 917.847 344.882 910.962 343.613 899.185H311.182C313.537 927.631 333.105 945.749 365.174 945.749ZM482.026 790.658C449.775 790.658 425.497 816.567 425.497 868.384C425.497 920.021 449.775 945.93 482.026 945.93C514.276 945.93 538.554 920.021 538.554 868.384C538.554 816.567 514.276 790.658 482.026 790.658ZM482.026 819.466C496.52 819.466 507.391 834.685 507.391 868.384C507.391 901.903 496.52 917.122 482.026 917.122C467.531 917.122 456.66 901.903 456.66 868.384C456.66 834.685 467.531 819.466 482.026 819.466ZM582.781 793.738C563.213 793.738 548.537 808.051 548.537 826.713C548.537 845.374 563.213 859.688 582.781 859.688C602.348 859.688 617.024 845.374 617.024 826.713C617.024 808.051 602.348 793.738 582.781 793.738ZM678.263 796.818H669.566L575.352 939.951H584.049L678.263 796.818ZM582.781 800.623C598.362 800.623 609.414 811.494 609.414 826.713C609.414 841.932 598.362 852.803 582.781 852.803C567.199 852.803 556.147 841.932 556.147 826.713C556.147 811.494 567.199 800.623 582.781 800.623ZM670.653 877.081C651.086 877.081 636.41 891.394 636.41 910.056C636.41 928.718 651.086 943.031 670.653 943.031C690.221 943.031 704.897 928.718 704.897 910.056C704.897 891.394 690.221 877.081 670.653 877.081ZM670.653 883.966C686.235 883.966 697.287 894.837 697.287 910.056C697.287 925.275 686.235 936.146 670.653 936.146C655.072 936.146 644.02 925.275 644.02 910.056C644.02 894.837 655.072 883.966 670.653 883.966Z" fill="white"/>
<path d="M398.935 712.325V739.984C398.935 753.328 407.245 762.063 420.165 762.063C433.024 762.063 441.334 753.328 441.334 739.984V712.325H434.965V739.984C434.965 749.75 429.384 756.24 420.165 756.24C410.945 756.24 405.304 749.75 405.304 739.984V712.325H398.935ZM451.077 712.325V760.91H457.446V746.05H468.303C480.92 746.05 488.32 739.317 488.32 729.187C488.32 719.058 480.92 712.325 468.303 712.325H451.077ZM467.818 740.287H457.446V718.087H467.818C476.613 718.087 481.951 721.969 481.951 729.187C481.951 736.405 476.613 740.287 467.818 740.287ZM550.719 718.027V712.325H509.473V718.027H526.942V760.91H533.311V718.027H550.719ZM578.39 762.002C593.13 762.002 603.987 751.266 603.987 736.587C603.987 721.909 593.069 711.173 578.33 711.173C563.59 711.173 552.733 721.909 552.733 736.587C552.733 751.266 563.651 762.002 578.39 762.002ZM578.39 756.179C567.29 756.179 559.102 747.991 559.102 736.587C559.102 725.123 567.23 716.995 578.33 716.995C589.43 716.995 597.618 725.123 597.618 736.587C597.618 747.991 589.43 756.179 578.39 756.179Z" fill="white"/>
<path d="M881.815 1000C881.815 949.859 871.939 900.21 852.751 853.886C833.563 807.562 805.439 765.471 769.984 730.016C734.529 694.561 692.438 666.437 646.114 647.249C599.79 628.061 550.141 618.185 500 618.185C449.859 618.185 400.209 628.061 353.885 647.249C307.562 666.437 265.471 694.561 230.016 730.016C194.561 765.471 166.437 807.562 147.249 853.886C128.061 900.21 118.185 949.859 118.185 1000H126.685V1000.04H171.241V992.038H135.277C137.203 900.998 173.225 813.995 236.218 748.238L261.518 773.543L273.539 761.522L248.239 736.222C313.861 673.355 400.65 637.345 491.503 635.287V671.241H508.503V635.287C599.355 637.344 686.142 673.353 751.765 736.218L726.465 761.518L738.486 773.539L763.786 748.234C826.779 813.991 862.8 900.994 864.726 992.034H828.763V1000.03H873.318V1000H881.815Z" fill="white"/>
</g>
<defs>
<clipPath id="clip0_1_1503">
<rect width="1000" height="1000" fill="white"/>
</clipPath>
</defs>
</svg>
